<svg xmlns="http://www.w3.org/2000/svg" width="927" height="162" viewBox="0 0 927 162" version="1.1">
	<path d="M 44.226 9.720 C 43.060 14.719, 40.743 21.816, 39.077 25.490 C 37.411 29.165, 30.678 40.345, 24.115 50.336 C 17.553 60.326, 10.593 71.674, 8.649 75.553 C 3.335 86.162, 0.998 95.778, 1.012 106.980 C 1.033 123.978, 5.296 134.456, 16.920 146.080 C 28.758 157.918, 40.707 162.559, 57.455 161.823 C 65.042 161.490, 67.604 160.909, 73.347 158.220 C 77.113 156.457, 82.020 153.568, 84.250 151.802 C 90.417 146.918, 96.400 138.087, 98.981 130.059 C 100.846 124.258, 101.176 121.543, 100.726 115.702 C 100.127 107.943, 97.761 101.420, 93.077 94.612 C 90.136 90.337, 90.130 90.302, 91.619 85.226 C 92.795 81.213, 92.879 79.264, 92.014 76.052 C 90.839 71.687, 85.388 64.642, 83.899 65.562 C 83.405 65.868, 83 67.112, 83 68.327 C 83 72.464, 78.245 77.849, 71.710 81.114 C 61.316 86.308, 58.499 89.902, 57.383 99.398 C 56.935 103.208, 57.118 105.437, 57.961 106.453 C 59.029 107.739, 59.692 107.539, 62.908 104.954 C 64.951 103.312, 68.141 101.533, 69.997 101.001 C 72.680 100.231, 74 100.399, 76.436 101.816 C 79.079 103.355, 79.542 104.254, 79.807 108.360 C 80.089 112.725, 79.797 113.438, 76.295 116.940 C 73.352 119.883, 71.175 121.029, 66.806 121.937 C 60.138 123.321, 55.448 122.372, 49.753 118.488 C 44.609 114.979, 41.609 108.905, 41.609 102 C 41.609 92.164, 47.512 84.481, 62.833 74.375 C 69.759 69.807, 71.510 68.101, 73.203 64.274 C 74.721 60.843, 75.096 58.458, 74.676 54.913 C 74.135 50.344, 70.035 40.758, 68.114 39.571 C 67.606 39.257, 66.063 40.912, 64.684 43.250 C 62.281 47.326, 56 54.136, 56 52.666 C 56 52.276, 57.108 50.279, 58.461 48.229 C 62.080 42.746, 63.415 35.317, 62.003 28.516 C 60.537 21.451, 55.160 10.766, 50.202 5.065 L 46.346 0.630 44.226 9.720 M 761 47.880 C 751.065 51.131, 743.773 58.169, 742.059 66.160 C 741.444 69.030, 741 83.986, 741 101.868 C 741 137.289, 741.444 140.125, 748.061 146.944 C 753.105 152.141, 759.896 155.143, 766.611 155.143 C 772.668 155.143, 777.587 153.248, 780.924 149.629 C 782.258 148.183, 783.684 147, 784.095 147 C 784.505 147, 785.138 148.350, 785.500 150 L 786.159 153 795.079 153 L 804 153 804 125 L 804 97 788 97 L 772 97 772 105 C 772 112.867, 772.042 113, 774.500 113 L 777 113 776.968 123.750 C 776.935 134.804, 775.981 138, 772.711 138 C 771.849 138, 770.436 137.293, 769.571 136.429 C 768.205 135.062, 768 130.446, 768 101 C 768 71.554, 768.205 66.938, 769.571 65.571 C 771.479 63.663, 772.109 63.628, 774.392 65.297 C 775.816 66.338, 776.278 68.611, 776.729 76.797 L 777.291 87 790.793 87 L 804.295 87 803.633 78.384 C 803.269 73.646, 802.480 67.822, 801.881 65.443 C 800.400 59.560, 795.102 53.686, 788.258 50.338 C 783.424 47.973, 781.131 47.516, 773.033 47.308 C 767.790 47.173, 762.375 47.430, 761 47.880 M 134.172 91.750 L 134.579 134.500 137.203 140.181 C 141.750 150.028, 151.467 155.054, 166 155.078 C 178.922 155.098, 187.320 151.205, 192.684 142.708 C 194.896 139.204, 195.414 136.896, 196.089 127.538 C 196.527 121.467, 196.911 101.313, 196.942 82.750 L 197 49 183.011 49 L 169.021 49 168.761 92.641 C 168.521 132.769, 168.361 136.370, 166.769 137.374 C 165.426 138.221, 164.641 138.069, 163.269 136.698 C 161.642 135.073, 161.474 131.475, 161.183 91.965 L 160.866 49 147.316 49 L 133.766 49 134.172 91.750 M 204 59.500 L 204 70 213.107 70 C 220.853 70, 222.127 70.228, 221.629 71.523 C 221.308 72.361, 216.535 87.798, 211.022 105.828 C 202.292 134.384, 201 139.538, 201 145.805 L 201 153 226 153 L 251 153 251 143 L 251 133 241 133 C 235.500 133, 231 132.879, 231 132.731 C 231 132.582, 235.498 118.520, 240.995 101.481 L 250.991 70.500 250.995 59.750 L 251 49 227.500 49 L 204 49 204 59.500 M 257 100.990 L 257 153.149 282.750 152.825 C 306.515 152.525, 308.767 152.343, 311.965 150.465 C 313.870 149.345, 316.345 146.870, 317.465 144.965 C 319.290 141.858, 319.500 139.794, 319.500 125 C 319.500 110.291, 319.284 108.142, 317.508 105.205 C 316.272 103.161, 313.492 100.920, 310.184 99.302 L 304.852 96.693 308.593 95.407 C 310.650 94.700, 313.496 92.959, 314.917 91.538 C 317.223 89.232, 317.539 88.024, 317.861 80.264 C 318.060 75.484, 317.684 69.166, 317.026 66.224 C 315.569 59.715, 311.269 54.483, 305 51.590 C 300.972 49.731, 298.221 49.478, 278.750 49.172 L 257 48.831 257 100.990 M 329 101 L 329 153 352.500 153 L 376 153 376 143.036 L 376 133.072 366.250 132.786 L 356.500 132.500 356.218 120.750 L 355.937 109 364.468 109 L 373 109 373 99.540 L 373 90.081 364.750 89.790 L 356.500 89.500 356.214 79.750 L 355.928 70 364.964 70 L 374 70 374 59.500 L 374 49 351.500 49 L 329 49 329 101 M 383 101 L 383 153 396.500 153 L 410 153 410.112 131.750 L 410.225 110.500 415.438 131.500 L 420.652 152.500 434.735 152.777 L 448.818 153.054 445.873 143.277 C 444.254 137.900, 440.433 125.060, 437.383 114.745 L 431.837 95.990 439.418 73.245 C 443.588 60.735, 447 50.148, 447 49.720 C 447 49.291, 441.310 49.066, 434.356 49.220 L 421.711 49.500 416.106 68.361 L 410.500 87.222 410.228 68.111 L 409.957 49 396.478 49 L 383 49 383 101 M 452 100.968 L 452 153 463.482 153 L 474.963 153 475.232 129.806 L 475.500 106.612 482.380 129.806 L 489.259 153 501.130 153 L 513 153 513 101 L 513 49 501.500 49 L 490 49 489.895 71.250 L 489.790 93.500 482.562 71.500 L 475.333 49.500 463.667 49.218 L 452 48.937 452 100.968 M 523 101 L 523 153 546.500 153 L 570 153 570 143 L 570 133 560 133 L 550 133 550 121 L 550 109 558.500 109 L 567 109 567 99.500 L 567 90 558.500 90 L 550 90 550 80 L 550 70 559 70 L 568 70 568 59.500 L 568 49 545.500 49 L 523 49 523 101 M 577 101 L 577 153 590.500 153 L 604 153 604 131 L 604 109 612 109 L 620 109 620 99.500 L 620 90 612 90 L 604 90 604 80.069 L 604 70.137 613.250 69.819 C 618.337 69.643, 626.212 69.631, 630.750 69.790 L 639 70.081 639 111.540 L 639 153 653 153 L 667 153 667 111.542 L 667 70.084 674.750 69.792 L 682.500 69.500 682.785 59.250 L 683.070 49 630.035 49 L 577 49 577 101 M 688 101 L 688 153 711.500 153 L 735 153 735 143 L 735 133 725 133 L 715 133 715 121 L 715 109 723.500 109 L 732 109 732 99.500 L 732 90 723.500 90 L 715 90 715 80 L 715 70 724 70 L 733 70 733 59.500 L 733 49 710.500 49 L 688 49 688 101 M 820.561 50.250 C 820.355 50.938, 817.418 72.875, 814.036 99 C 810.654 125.125, 807.637 147.963, 807.332 149.750 L 806.777 153 820.809 153 L 834.841 153 835.474 146.250 C 835.822 142.537, 836.195 138.600, 836.303 137.500 C 836.468 135.823, 837.348 135.451, 841.750 135.198 L 847 134.895 847 140.823 C 847 144.083, 847.281 148.156, 847.625 149.875 L 848.250 153 861.625 153 C 872.941 153, 875 152.765, 875 151.476 C 875 149.964, 861.515 58.484, 860.373 52.250 L 859.777 49 840.357 49 C 825.688 49, 820.845 49.306, 820.561 50.250 M 880 59.500 L 880 70 889 70 C 893.950 70, 898 70.389, 898 70.863 C 898 71.338, 893.500 86.408, 888 104.351 C 878.880 134.105, 878 137.681, 878 144.988 L 878 153 902.500 153 L 927 153 927 143 L 927 133 917.500 133 C 911.160 133, 908 132.628, 908 131.881 C 908 131.265, 912.275 117.606, 917.500 101.526 L 927 72.290 927 60.645 L 927 49 903.500 49 L 880 49 880 59.500 M 284 78.500 L 284 90 286.929 90 C 291.833 90, 293 87.859, 293 78.863 C 293 74.466, 292.534 69.998, 291.965 68.934 C 291.247 67.593, 289.867 67, 287.465 67 L 284 67 284 78.500 M 841.125 74.500 C 840.734 77.536, 836.965 108.155, 836.540 111.750 L 836.038 116 840.924 116 L 845.810 116 845.312 112.250 C 845.039 110.188, 844.014 100.625, 843.035 91 C 842.055 81.375, 841.196 73.950, 841.125 74.500 M 284.223 120.634 L 284.500 135.500 287.500 135.178 C 289.150 135.001, 291.063 134.127, 291.750 133.237 C 292.579 132.162, 292.995 127.897, 292.985 120.559 C 292.976 114.476, 292.638 108.979, 292.232 108.342 C 291.827 107.705, 289.797 106.865, 287.720 106.475 L 283.945 105.767 284.223 120.634" stroke="none" fill="black" fill-rule="evenodd"/>
</svg>